<svg xmlns="http://www.w3.org/2000/svg" xmlns:xlink="http://www.w3.org/1999/xlink" width="40" zoomAndPan="magnify" viewBox="0 0 30 30.000001" height="40" preserveAspectRatio="xMidYMid meet" version="1.0"><defs><clipPath id="591e1ed7a4"><path d="M 4.1875 0.589844 L 25.960938 0.589844 L 25.960938 28.167969 L 4.1875 28.167969 Z M 4.1875 0.589844 " clip-rule="nonzero"/></clipPath></defs><g clip-path="url(#591e1ed7a4)"><path fill="#ffc4dc" d="M 15.019531 0.617188 C 12.558594 0.617188 10.5625 2.339844 10.5625 4.449219 L 10.5625 7.421875 L 7.414062 7.421875 C 7.292969 7.417969 7.191406 7.457031 7.097656 7.53125 C 7.007812 7.605469 6.953125 7.703125 6.933594 7.820312 L 4.269531 26.648438 C 4.234375 26.871094 4.25 27.089844 4.3125 27.304688 C 4.375 27.519531 4.480469 27.714844 4.628906 27.882812 C 4.773438 28.050781 4.949219 28.183594 5.15625 28.277344 C 5.359375 28.367188 5.574219 28.414062 5.796875 28.414062 L 24.238281 28.414062 C 24.464844 28.414062 24.679688 28.367188 24.882812 28.277344 C 25.085938 28.183594 25.261719 28.050781 25.410156 27.882812 C 25.554688 27.714844 25.660156 27.519531 25.722656 27.304688 C 25.785156 27.089844 25.800781 26.871094 25.769531 26.648438 L 23.085938 7.804688 C 23.066406 7.6875 23.007812 7.59375 22.917969 7.515625 C 22.828125 7.441406 22.722656 7.40625 22.605469 7.40625 L 19.476562 7.40625 L 19.476562 4.449219 C 19.476562 2.339844 17.476562 0.617188 15.019531 0.617188 Z M 11.492188 7.421875 L 11.492188 4.449219 C 11.492188 2.839844 13.074219 1.53125 15.019531 1.53125 C 16.964844 1.53125 18.546875 2.847656 18.546875 4.449219 L 18.546875 7.421875 Z M 11.492188 7.421875 " fill-opacity="1" fill-rule="nonzero"/></g></svg>