<svg xmlns="http://www.w3.org/2000/svg" xmlns:xlink="http://www.w3.org/1999/xlink" width="40" zoomAndPan="magnify" viewBox="0 0 30 30.000001" height="40" preserveAspectRatio="xMidYMid meet" version="1.0"><defs><clipPath id="f8ed2bcc41"><path d="M 1.105469 2.808594 L 28.933594 2.808594 L 28.933594 27.21875 L 1.105469 27.21875 Z M 1.105469 2.808594 " clip-rule="nonzero"/></clipPath><clipPath id="e3be271e79"><path d="M 2.207031 6.785156 C -0.046875 10.496094 1.542969 14.109375 3.535156 16.027344 L 15.199219 27.21875 L 26.617188 16.066406 C 28.472656 14.003906 29.183594 11.816406 28.789062 9.378906 C 28.242188 6.011719 25.464844 3.394531 22.035156 3.023438 C 19.929688 2.796875 17.898438 3.390625 16.3125 4.710938 C 15.882812 5.0625 15.503906 5.460938 15.167969 5.890625 C 14.773438 5.402344 14.3125 4.953125 13.789062 4.554688 C 11.964844 3.167969 9.640625 2.617188 7.410156 3.046875 C 5.300781 3.453125 3.402344 4.816406 2.207031 6.785156 Z M 2.207031 6.785156 " clip-rule="nonzero"/></clipPath><clipPath id="c01010c9d2"><path d="M 0.105469 0.808594 L 27.933594 0.808594 L 27.933594 25.21875 L 0.105469 25.21875 Z M 0.105469 0.808594 " clip-rule="nonzero"/></clipPath><clipPath id="d26edfc710"><path d="M 1.207031 4.785156 C -1.046875 8.496094 0.542969 12.109375 2.535156 14.027344 L 14.199219 25.21875 L 25.617188 14.066406 C 27.472656 12.003906 28.183594 9.816406 27.789062 7.378906 C 27.242188 4.011719 24.464844 1.394531 21.035156 1.023438 C 18.929688 0.796875 16.898438 1.390625 15.3125 2.710938 C 14.882812 3.0625 14.503906 3.460938 14.167969 3.890625 C 13.773438 3.402344 13.3125 2.953125 12.789062 2.554688 C 10.964844 1.167969 8.640625 0.617188 6.410156 1.046875 C 4.300781 1.453125 2.402344 2.816406 1.207031 4.785156 Z M 1.207031 4.785156 " clip-rule="nonzero"/></clipPath><clipPath id="f15f0ace84"><rect x="0" width="28" y="0" height="26"/></clipPath></defs><g clip-path="url(#f8ed2bcc41)"><g clip-path="url(#e3be271e79)"><g transform="matrix(1, 0, 0, 1, 1, 2)"><g clip-path="url(#f15f0ace84)"><g clip-path="url(#c01010c9d2)"><g clip-path="url(#d26edfc710)"><path fill="#ffc4dc" d="M 0.105469 0.902344 L 27.933594 0.902344 L 27.933594 25.21875 L 0.105469 25.21875 Z M 0.105469 0.902344 " fill-opacity="1" fill-rule="nonzero"/></g></g></g></g></g></g></svg>