<svg xmlns="http://www.w3.org/2000/svg" xmlns:xlink="http://www.w3.org/1999/xlink" width="40" zoomAndPan="magnify" viewBox="0 0 30 30.000001" height="40" preserveAspectRatio="xMidYMid meet" version="1.0"><defs><clipPath id="17a5fc8acd"><path d="M 1.125 3.199219 L 28.703125 3.199219 L 28.703125 7.804688 L 1.125 7.804688 Z M 1.125 3.199219 " clip-rule="nonzero"/></clipPath><clipPath id="0392e235b0"><path d="M 1.125 12.300781 L 28.703125 12.300781 L 28.703125 17 L 1.125 17 Z M 1.125 12.300781 " clip-rule="nonzero"/></clipPath><clipPath id="5d869b383e"><path d="M 1.125 21.511719 L 28.703125 21.511719 L 28.703125 26.132812 L 1.125 26.132812 Z M 1.125 21.511719 " clip-rule="nonzero"/></clipPath><clipPath id="d28b4a5209"><path d="M 1.125 3.050781 L 28.703125 3.050781 L 28.703125 7.65625 L 1.125 7.65625 Z M 1.125 3.050781 " clip-rule="nonzero"/></clipPath><clipPath id="50c2e4a3f4"><path d="M 1.125 12.15625 L 28.703125 12.15625 L 28.703125 16.867188 L 1.125 16.867188 Z M 1.125 12.15625 " clip-rule="nonzero"/></clipPath><clipPath id="a1337ea5db"><path d="M 1.125 21.367188 L 28.703125 21.367188 L 28.703125 25.984375 L 1.125 25.984375 Z M 1.125 21.367188 " clip-rule="nonzero"/></clipPath></defs><g clip-path="url(#17a5fc8acd)"><path fill="#ff66c4" d="M 26.582031 7.785156 L 3.417969 7.785156 C 2.148438 7.785156 1.125 6.757812 1.125 5.492188 C 1.125 4.226562 2.148438 3.199219 3.417969 3.199219 L 26.582031 3.199219 C 27.847656 3.199219 28.875 4.226562 28.875 5.492188 C 28.875 6.757812 27.847656 7.785156 26.582031 7.785156 " fill-opacity="1" fill-rule="nonzero"/></g><g clip-path="url(#0392e235b0)"><path fill="#ff66c4" d="M 26.582031 16.960938 L 3.417969 16.960938 C 2.148438 16.960938 1.125 15.933594 1.125 14.664062 C 1.125 13.398438 2.148438 12.371094 3.417969 12.371094 L 26.582031 12.371094 C 27.847656 12.371094 28.875 13.398438 28.875 14.664062 C 28.875 15.933594 27.847656 16.960938 26.582031 16.960938 " fill-opacity="1" fill-rule="nonzero"/></g><g clip-path="url(#5d869b383e)"><path fill="#ff66c4" d="M 26.582031 26.132812 L 3.417969 26.132812 C 2.148438 26.132812 1.125 25.105469 1.125 23.839844 C 1.125 22.574219 2.148438 21.546875 3.417969 21.546875 L 26.582031 21.546875 C 27.847656 21.546875 28.875 22.574219 28.875 23.839844 C 28.875 25.105469 27.847656 26.132812 26.582031 26.132812 " fill-opacity="1" fill-rule="nonzero"/></g><g clip-path="url(#d28b4a5209)"><path fill="#ff66c4" d="M 26.582031 7.636719 L 3.417969 7.636719 C 2.148438 7.636719 1.125 6.609375 1.125 5.34375 C 1.125 4.078125 2.148438 3.050781 3.417969 3.050781 L 26.582031 3.050781 C 27.847656 3.050781 28.875 4.078125 28.875 5.34375 C 28.875 6.609375 27.847656 7.636719 26.582031 7.636719 " fill-opacity="1" fill-rule="nonzero"/></g><g clip-path="url(#50c2e4a3f4)"><path fill="#ff66c4" d="M 26.582031 16.8125 L 3.417969 16.8125 C 2.148438 16.8125 1.125 15.785156 1.125 14.519531 C 1.125 13.25 2.148438 12.226562 3.417969 12.226562 L 26.582031 12.226562 C 27.847656 12.226562 28.875 13.25 28.875 14.519531 C 28.875 15.785156 27.847656 16.8125 26.582031 16.8125 " fill-opacity="1" fill-rule="nonzero"/></g><g clip-path="url(#a1337ea5db)"><path fill="#ff66c4" d="M 26.582031 25.984375 L 3.417969 25.984375 C 2.148438 25.984375 1.125 24.960938 1.125 23.691406 C 1.125 22.425781 2.148438 21.398438 3.417969 21.398438 L 26.582031 21.398438 C 27.847656 21.398438 28.875 22.425781 28.875 23.691406 C 28.875 24.960938 27.847656 25.984375 26.582031 25.984375 " fill-opacity="1" fill-rule="nonzero"/></g></svg>